<?xml version="1.0" encoding="UTF-8"?>
<svg width="384px" height="480px" viewBox="0 0 384 480" version="1.1" xmlns="http://www.w3.org/2000/svg" xmlns:xlink="http://www.w3.org/1999/xlink">
    <!-- Generator: Sketch 52.1 (67048) - http://www.bohemiancoding.com/sketch -->
    <title>household</title>
    <desc>Created with Sketch.</desc>
    <g id="Page-1" stroke="none" stroke-width="1" fill="none" fill-rule="evenodd">
        <g id="household">
            <path d="M376,0 L8,0 C3.582,0 0,3.582 0,8 L0,440 C0,444.418 3.582,448 8,448 L24,448 L24,472 C24,476.418 27.582,480 32,480 L360,480 C364.418,480 368,476.418 368,472 L368,448 L376,448 C380.418,448 384,444.418 384,440 L384,8 C384,3.582 380.418,0 376,0 Z M144,16 L240,16 L240,96 L144,96 L144,16 Z M16,16 L128,16 L128,96 L16,96 L16,16 Z M352,464 L40,464 L40,448 L352,448 L352,464 Z M368,432 L16,432 L16,112 L368,112 L368,432 Z M368,96 L256,96 L256,16 L368,16 L368,96 Z" id="Shape" fill="#FFFCEB" fill-rule="nonzero"></path>
            <path d="M192,400 C262.692,400 320,342.692 320,272 C320,201.308 262.692,144 192,144 C121.308,144 64,201.308 64,272 C64.084,342.658 121.342,399.916 192,400 Z M192,160 C253.856,160 304,210.144 304,272 C304,333.856 253.856,384 192,384 C130.144,384 80,333.856 80,272 C80.066,210.172 130.172,160.066 192,160 Z" id="Shape" fill="#5459BB" fill-rule="nonzero"></path>
            <path d="M192,368 C245.019,368 288,325.019 288,272 C288,218.981 245.019,176 192,176 C138.981,176 96,218.981 96,272 C96.057,324.996 139.004,367.943 192,368 Z M192,192 C236.183,192 272,227.817 272,272 C272,316.183 236.183,352 192,352 C147.817,352 112,316.183 112,272 C112.049,227.837 147.837,192.048 192,192 Z" id="Shape" fill="#62BFB2" fill-rule="nonzero"></path>
            <path d="M296,80 C309.255,80 320,69.255 320,56 C320,42.745 309.255,32 296,32 C282.745,32 272,42.745 272,56 C272,69.255 282.745,80 296,80 Z M296,48 C300.418,48 304,51.582 304,56 C304,60.418 300.418,64 296,64 C291.582,64 288,60.418 288,56 C288,51.582 291.582,48 296,48 Z" id="Shape" fill="#595959" fill-rule="nonzero"></path>
            <path d="M88,32 C74.745,32 64,42.745 64,56 C64,69.255 74.745,80 88,80 C101.255,80 112,69.255 112,56 C112,42.745 101.255,32 88,32 Z M88,64 C83.582,64 80,60.418 80,56 C80,51.582 83.582,48 88,48 C92.418,48 96,51.582 96,56 C96,60.418 92.418,64 88,64 Z" id="Shape" fill="#595959" fill-rule="nonzero"></path>
            <path d="M135.672,267.208 C136.255,267.339 136.85,267.406 137.448,267.408 C141.171,267.402 144.398,264.829 145.232,261.2 C151.209,235.362 176.988,219.251 202.832,225.2 C207.138,226.192 211.432,223.506 212.424,219.2 C213.416,214.894 210.73,210.6 206.424,209.608 C171.983,201.718 137.653,223.188 129.672,257.608 C128.676,261.913 131.358,266.21 135.662,267.206 C135.666,267.206 135.669,267.207 135.672,267.208 Z" id="Path" fill="#FFEF23"></path>
            <path d="M181.218,318.821 C181.199,318.816 181.179,318.812 181.16,318.808 L181.2,318.768 C176.883,317.774 172.578,320.467 171.584,324.784 C170.59,329.101 173.283,333.406 177.6,334.4 C212.042,342.344 246.403,320.864 254.347,286.422 C254.349,286.415 254.35,286.407 254.352,286.4 C255.344,282.094 252.658,277.8 248.352,276.808 C244.046,275.816 239.752,278.502 238.76,282.808 C232.815,308.642 207.053,324.766 181.218,318.821 Z" id="Path" fill="#FFEF23"></path>
        </g>
    </g>
</svg>